<svg xmlns="http://www.w3.org/2000/svg" width="64" height="64" viewBox="0 0 64 64" fill="none">
  <!-- Building base -->
  <rect x="8" y="16" width="16" height="40" stroke="#000" stroke-width="3" fill="none"/>
  <rect x="24" y="8" width="16" height="48" stroke="#000" stroke-width="3" fill="none"/>
  <rect x="40" y="20" width="16" height="36" stroke="#000" stroke-width="3" fill="none"/>
  
  <!-- Windows -->
  <line x1="12" y1="24" x2="20" y2="24" stroke="#000" stroke-width="2"/>
  <line x1="12" y1="32" x2="20" y2="32" stroke="#000" stroke-width="2"/>
  <line x1="12" y1="40" x2="20" y2="40" stroke="#000" stroke-width="2"/>
  <line x1="12" y1="48" x2="20" y2="48" stroke="#000" stroke-width="2"/>

  <line x1="28" y1="16" x2="36" y2="16" stroke="#000" stroke-width="2"/>
  <line x1="28" y1="24" x2="36" y2="24" stroke="#000" stroke-width="2"/>
  <line x1="28" y1="32" x2="36" y2="32" stroke="#000" stroke-width="2"/>
  <line x1="28" y1="40" x2="36" y2="40" stroke="#000" stroke-width="2"/>

  <line x1="44" y1="28" x2="52" y2="28" stroke="#000" stroke-width="2"/>
  <line x1="44" y1="36" x2="52" y2="36" stroke="#000" stroke-width="2"/>
  <line x1="44" y1="44" x2="52" y2="44" stroke="#000" stroke-width="2"/>
  <line x1="44" y1="52" x2="52" y2="52" stroke="#000" stroke-width="2"/>
</svg>
